<?xml version="1.0" standalone="no"?>
<!DOCTYPE svg PUBLIC "-//W3C//DTD SVG 20010904//EN"
 "http://www.w3.org/TR/2001/REC-SVG-20010904/DTD/svg10.dtd">
<svg version="1.0" xmlns="http://www.w3.org/2000/svg"
 width="709.000000pt" height="709.000000pt" viewBox="0 0 709.000000 709.000000"
 preserveAspectRatio="xMidYMid meet">
<metadata>
Created by potrace 1.11, written by Peter Selinger 2001-2013
</metadata>
<g transform="translate(0.000000,709.000000) scale(0.100000,-0.100000)"
fill="#000000" stroke="none">
<path d="M2200 6700 l0 -110 -115 0 -115 0 0 -110 0 -110 98 1 c53 1 158 5
232 8 l135 8 -117 1 -118 2 0 100 0 100 230 0 230 0 0 -110 0 -110 115 0 115
0 0 -321 0 -320 230 3 230 3 0 -112 0 -113 120 0 120 0 0 -105 0 -105 105 0
c58 0 105 3 105 8 0 4 -45 6 -100 4 l-100 -3 0 101 0 101 96 -2 c91 -1 96 -3
105 -26 11 -30 11 -55 -1 -28 -6 13 -8 -5 -8 -55 0 -55 2 -68 9 -50 l8 25 -1
-25 c0 -14 0 -80 1 -147 l1 -123 115 0 115 0 0 110 0 110 115 0 115 0 0 108 0
107 114 -3 114 -3 7 215 7 216 114 0 114 0 0 110 0 110 233 -2 232 -3 1 -105
2 -105 111 -3 111 -3 0 -104 0 -105 26 0 c24 0 24 -1 9 -17 -14 -14 -18 -14
-26 -2 -7 11 -9 11 -9 -3 0 -10 7 -18 15 -18 12 0 15 -14 15 -67 0 -36 3 -63
7 -59 4 4 6 38 6 76 -2 57 0 68 11 57 8 -6 13 -16 11 -22 -1 -5 0 -7 2 -2 3 4
8 5 12 3 4 -3 8 1 8 9 0 8 -6 15 -14 15 -7 0 -13 7 -13 15 0 12 16 15 80 15
l79 0 4 -107 c1 -60 4 -12 5 105 l2 212 -115 0 -115 0 0 116 0 116 -97 -2
c-54 -1 -104 -1 -110 -1 -10 1 -13 27 -13 97 l0 95 109 -3 c60 -2 107 0 104 5
-2 4 -209 7 -459 7 l-454 0 0 -215 0 -215 -120 0 -120 0 0 -105 0 -105 -115 0
-115 0 0 105 0 105 -460 0 -460 0 0 215 0 215 -115 0 c-135 0 -129 -7 -123
134 l3 86 -112 0 -113 0 0 110 0 110 -230 0 -230 0 0 -110z m1830 -869 l0 -98
-83 -2 c-45 -1 -94 2 -107 8 -14 5 -18 10 -10 11 12 0 11 3 -2 11 -15 8 -18
24 -18 89 l0 80 110 0 110 0 0 -99z m-223 -438 c-3 -10 -5 -4 -5 12 0 17 2 24
5 18 2 -7 2 -21 0 -30z"/>
<path d="M3833 5840 c0 -41 2 -58 4 -37 2 20 2 54 0 75 -2 20 -4 3 -4 -38z"/>
<path d="M3923 5743 c9 -2 23 -2 30 0 6 3 -1 5 -18 5 -16 0 -22 -2 -12 -5z"/>
<path d="M1740 6155 l0 -215 110 0 110 0 0 215 0 215 -110 0 -110 0 0 -215z"/>
<path d="M5421 6304 c0 -11 3 -14 6 -6 3 7 2 16 -1 19 -3 4 -6 -2 -5 -13z"/>
<path d="M1970 5725 l0 -215 115 0 115 0 0 -105 0 -105 -230 0 -230 0 0 -110
0 -110 -235 0 -235 0 0 -105 0 -105 233 -2 232 -3 3 -106 3 -107 -236 -7 -235
-7 0 -104 0 -104 -230 0 -230 0 0 -105 0 -105 230 0 230 0 0 -115 0 -115 -230
0 -230 0 0 -210 0 -210 230 0 230 0 0 -110 0 -110 -115 0 -115 0 0 -215 0
-215 230 0 230 0 0 105 0 105 120 0 120 0 0 -105 0 -104 -117 -3 -118 -3 0
-105 0 -105 228 -3 227 -2 0 -105 0 -105 350 0 350 0 0 -215 0 -215 230 0 230
0 0 105 0 105 230 0 230 0 0 105 0 105 -70 0 c-38 0 -70 -4 -70 -8 0 -4 28 -8
63 -8 l62 1 3 -91 3 -91 -42 -1 c-23 -1 -49 4 -57 11 -13 9 -14 9 -8 0 5 -10
-5 -13 -41 -13 -35 0 -44 3 -33 10 13 8 12 10 -2 10 -16 0 -18 11 -18 86 0 80
1 86 19 81 10 -2 25 0 32 5 10 6 0 8 -28 6 l-43 -4 0 113 0 113 350 0 350 0 0
-105 0 -105 110 0 110 0 0 -215 0 -215 235 0 235 0 0 320 0 320 115 0 115 0 0
-105 0 -105 115 0 115 0 0 215 0 215 -115 0 -115 0 0 105 0 105 230 0 230 0 0
-105 0 -105 115 0 115 0 0 105 0 105 -115 0 -115 0 0 215 0 215 -115 0 -115 0
0 110 0 110 -115 0 -115 0 0 -110 0 -110 -110 0 -110 0 0 -105 0 -105 -120 0
-120 0 0 -110 0 -110 -580 0 -580 0 0 -105 0 -106 -112 3 -113 3 -3 213 -2
212 -460 0 -460 0 0 -110 0 -110 -120 0 -120 0 0 110 0 110 -110 0 -110 0 -1
108 c0 59 -1 157 -1 217 l-1 110 114 5 114 5 3 425 c2 234 5 426 6 427 1 1 90
3 198 4 156 2 195 5 187 15 -8 10 -6 12 9 11 13 -1 18 -7 15 -22 -3 -20 -3
-20 6 0 5 11 11 52 12 90 l3 70 6 -90 c4 -53 7 47 8 243 l2 332 120 0 120 0 0
105 0 105 110 0 110 0 0 110 0 110 -340 0 -340 0 0 105 0 105 -115 0 -115 0 0
-215z m417 -878 c4 -6 -2 -8 -15 -5 -12 4 -22 2 -22 -3 0 -5 5 -9 11 -9 5 0 7
-5 4 -11 -5 -6 -13 -2 -22 11 -13 18 -23 21 -72 18 -56 -2 -57 -3 -59 -33 l-2
-30 75 3 c67 3 74 2 69 -13 -6 -14 -18 -16 -75 -13 l-68 4 -4 -56 c-2 -32 -4
-12 -5 48 l-2 103 90 -2 c50 -1 93 -6 97 -12z m13 -21 c0 -3 -4 -8 -10 -11 -5
-3 -10 -1 -10 4 0 6 5 11 10 11 6 0 10 -2 10 -4z m2372 -1318 c-5 -71 -10 -77
-11 -15 0 31 2 57 7 57 4 0 6 -19 4 -42z m135 36 c-3 -3 -12 -4 -19 -1 -8 3
-5 6 6 6 11 1 17 -2 13 -5z m50 -71 c-3 -10 -5 -2 -5 17 0 19 2 27 5 18 2 -10
2 -26 0 -35z m0 -60 c-3 -10 -5 -4 -5 12 0 17 2 24 5 18 2 -7 2 -21 0 -30z
m-113 -44 c-2 -4 -21 -7 -41 -7 -25 0 -32 3 -19 7 24 9 66 9 60 0z m80 -1 c-3
-4 -11 -5 -19 -1 -21 7 -19 12 4 10 11 0 18 -5 15 -9z m-1567 -1041 c-2 -23
-3 -1 -3 48 0 50 1 68 3 42 2 -26 2 -67 0 -90z m1370 -199 c-2 -18 -4 -6 -4
27 0 33 2 48 4 33 2 -15 2 -42 0 -60z"/>
<path d="M5619 5698 c-5 -18 -6 -38 -1 -34 7 8 12 36 6 36 -2 0 -4 -1 -5 -2z"/>
<path d="M5557 5679 c7 -7 15 -10 18 -7 3 3 -2 9 -12 12 -14 6 -15 5 -6 -5z"/>
<path d="M5441 5664 c0 -11 3 -14 6 -6 3 7 2 16 -1 19 -3 4 -6 -2 -5 -13z"/>
<path d="M5437 5613 c-3 -16 -1 -35 4 -43 6 -10 8 -2 9 28 0 48 -5 55 -13 15z"/>
<path d="M5453 5543 c9 -2 17 -9 17 -14 0 -5 39 -8 88 -7 l87 2 -80 3 c-44 2
-84 8 -89 13 -6 6 -17 9 -25 9 -12 -1 -12 -2 2 -6z"/>
<path d="M5210 5408 l0 -108 110 0 110 0 0 108 0 107 -110 0 -110 0 0 -107z"/>
<path d="M2892 5401 l2 -106 6 90 c7 101 13 104 10 6 -1 -54 1 -63 14 -58 8 3
18 2 21 -4 4 -5 -4 -13 -17 -18 -17 -7 4 -10 75 -10 86 -1 97 1 96 17 0 10 -3
12 -6 5 -3 -9 -28 -13 -72 -13 -75 0 -70 -7 -71 88 -1 44 -5 55 -25 68 -14 9
-25 19 -25 23 0 3 37 4 82 1 l83 -5 3 -77 c2 -67 1 -77 -13 -72 -11 5 -15 23
-16 73 -1 36 -3 58 -6 49 -2 -10 -8 -18 -13 -18 -5 0 -7 7 -4 15 5 11 -1 14
-23 12 -28 -2 -29 -3 -31 -69 -4 -78 15 -95 21 -20 l3 47 2 -47 c1 -34 6 -48
16 -48 11 0 16 15 19 53 l3 52 2 -51 c2 -44 5 -53 24 -57 12 -4 23 -5 25 -3 2
1 4 35 6 74 1 40 7 72 12 72 6 1 -1 7 -15 14 l-24 14 24 4 c14 2 -23 4 -82 4
l-108 0 2 -105z m98 39 c0 -5 -2 -10 -4 -10 -3 0 -8 5 -11 10 -3 6 -1 10 4 10
6 0 11 -4 11 -10z"/>
<path d="M3114 5410 c0 -58 1 -81 3 -52 2 28 2 76 0 105 -2 28 -3 5 -3 -53z"/>
<path d="M3694 5493 c58 -3 74 -7 70 -17 -3 -8 -1 -17 5 -21 7 -4 10 2 8 17
-4 22 -8 23 -81 24 l-76 0 74 -3z"/>
<path d="M3773 5390 c0 -30 2 -43 4 -27 2 15 2 39 0 55 -2 15 -4 2 -4 -28z"/>
<path d="M3052 5375 c0 -16 2 -22 5 -12 2 9 2 23 0 30 -3 6 -5 -1 -5 -18z"/>
<path d="M3673 5323 c20 -2 54 -2 75 0 20 2 3 4 -38 4 -41 0 -58 -2 -37 -4z"/>
<path d="M4510 5188 l0 -108 115 0 115 0 0 108 0 107 -115 0 -115 0 0 -107z"/>
<path d="M4623 4863 l-113 -4 0 -104 0 -105 115 0 115 0 0 110 c0 61 -1 109
-2 108 -2 -1 -54 -4 -115 -5z"/>
<path d="M2543 4633 c9 -2 25 -2 35 0 9 3 1 5 -18 5 -19 0 -27 -2 -17 -5z"/>
<path d="M4273 4540 l1 -100 113 0 113 0 0 100 0 100 -114 0 -114 0 1 -100z"/>
<path d="M2651 4604 c0 -11 3 -14 6 -6 3 7 2 16 -1 19 -3 4 -6 -2 -5 -13z"/>
<path d="M2654 4110 c0 -184 2 -260 3 -167 2 92 2 242 0 335 -1 92 -3 16 -3
-168z"/>
<path d="M2430 4322 l0 -109 32 5 31 5 -29 14 c-16 7 -21 11 -12 9 12 -4 15 0
11 9 -3 8 -8 13 -12 11 -4 -3 -4 22 -1 55 3 32 2 59 -2 59 -4 0 -8 5 -8 10 0
6 6 9 13 8 6 -2 11 3 10 10 -2 8 10 12 38 12 24 0 38 -4 34 -10 -9 -15 24 -25
38 -11 8 8 7 11 -3 12 -10 0 -7 4 5 9 13 6 -7 9 -62 9 l-83 1 0 -108z"/>
<path d="M2612 4423 c16 -4 18 -23 18 -210 -1 -113 2 -208 5 -211 3 -3 5 92 5
211 l0 217 -22 -1 c-17 -1 -19 -2 -6 -6z"/>
<path d="M2600 4400 c0 -5 5 -10 10 -10 6 0 10 5 10 10 0 6 -4 10 -10 10 -5 0
-10 -4 -10 -10z"/>
<path d="M2478 4373 c6 -2 18 -2 25 0 6 3 1 5 -13 5 -14 0 -19 -2 -12 -5z"/>
<path d="M2536 4302 c3 -280 4 -282 19 -282 12 0 15 16 16 83 1 45 0 87 -1 92
-5 18 0 167 6 176 3 5 -5 9 -18 9 -22 0 -23 -3 -22 -78z"/>
<path d="M2600 4250 c0 -5 5 -10 11 -10 5 0 7 5 4 10 -3 6 -8 10 -11 10 -2 0
-4 -4 -4 -10z"/>
<path d="M5202 4000 l-3 -210 115 0 116 0 0 210 0 210 -112 0 -113 0 -3 -210z"/>
<path d="M2542 3905 c2 -64 -1 -107 -7 -109 -5 -3 6 -5 25 -5 24 0 31 2 21 8
-11 7 -14 33 -13 110 2 85 0 101 -14 101 -13 0 -15 -15 -12 -105z"/>
<path d="M2603 3970 c0 -22 4 -40 9 -40 4 0 8 15 8 34 0 19 -4 37 -8 40 -5 3
-9 -13 -9 -34z"/>
<path d="M3590 3778 l0 -213 458 0 457 0 0 212 0 213 -457 0 -458 0 0 -212z"/>
<path d="M2633 3850 c0 -36 2 -50 4 -32 2 17 2 47 0 65 -2 17 -4 3 -4 -33z"/>
<path d="M2609 3848 c-8 -24 -7 -58 1 -58 5 0 10 14 10 30 0 17 -2 30 -5 30
-3 0 -5 -1 -6 -2z"/>
<path d="M2448 3793 c7 -3 16 -2 19 1 4 3 -2 6 -13 5 -11 0 -14 -3 -6 -6z"/>
<path d="M1740 1948 l0 -108 230 0 230 0 0 -105 0 -105 230 0 230 0 0 -220 0
-219 113 -3 112 -3 5 -305 c3 -168 6 -266 8 -217 l2 87 108 0 c101 0 108 -1
109 -20 1 -11 -2 -18 -8 -15 -5 4 -9 -1 -9 -9 0 -8 -4 -18 -10 -21 -6 -4 -7 1
-4 12 5 17 5 17 -9 0 -9 -11 -13 -26 -10 -34 4 -11 8 -12 13 -3 11 17 23 -22
14 -44 -5 -14 -9 -15 -15 -4 -7 10 -9 9 -9 -4 0 -10 7 -18 16 -18 8 0 12 -5 9
-10 -3 -6 -2 -10 4 -10 6 0 12 30 14 68 l3 67 2 -82 2 -83 115 0 115 0 0 215
0 215 -115 0 -115 0 0 435 0 435 -347 -3 -348 -2 -3 107 -3 107 -339 3 -340 3
0 -107z"/>
<path d="M3350 1733 l0 -103 115 0 115 0 0 103 0 102 -115 0 -115 0 0 -102z"/>
<path d="M4034 1735 c0 -49 1 -71 3 -48 2 23 2 64 0 90 -2 26 -3 8 -3 -42z"/>
<path d="M3350 1295 l0 -105 115 0 115 0 0 105 0 105 -115 0 -115 0 0 -105z"/>
<path d="M3888 1393 c23 -2 61 -2 85 0 23 2 4 4 -43 4 -47 0 -66 -2 -42 -4z"/>
<path d="M4033 1290 c0 -47 2 -66 4 -42 2 23 2 61 0 85 -2 23 -4 4 -4 -43z"/>
<path d="M3580 865 l0 -105 115 0 115 0 0 105 0 105 -115 0 -115 0 0 -105z"/>
<path d="M2955 730 c-3 -5 -15 -10 -26 -10 -10 0 -19 -3 -19 -7 0 -5 34 -9 75
-9 41 -1 75 2 75 7 0 5 7 9 15 9 8 0 15 5 15 10 0 13 -21 9 -38 -7 -15 -14
-35 -16 -71 -6 -23 6 -23 7 -5 14 16 6 16 8 2 8 -9 1 -20 -3 -23 -9z"/>
<path d="M2913 615 c0 -8 4 -12 9 -9 4 3 8 9 8 15 0 5 -4 9 -8 9 -5 0 -9 -7
-9 -15z"/>
<path d="M2950 610 c-9 -6 -10 -10 -3 -10 6 0 15 5 18 10 8 12 4 12 -15 0z"/>
<path d="M2963 593 c-7 -2 -9 -11 -6 -19 3 -8 1 -14 -5 -14 -6 0 -12 5 -14 10
-2 7 -11 5 -23 -4 -18 -14 -10 -15 90 -14 84 2 93 3 38 5 -57 3 -73 7 -73 19
0 11 6 13 20 9 11 -3 20 -3 20 2 0 10 -28 13 -47 6z"/>
</g>
</svg>
